<svg width="168" height="126" viewBox="0 0 168 126" fill="none" xmlns="http://www.w3.org/2000/svg">
<path d="M8.99998 125.333H159C160.519 125.329 162.007 124.91 163.306 124.122C164.604 123.334 165.663 122.207 166.368 120.862C167.074 119.517 167.399 118.005 167.309 116.489C167.219 114.973 166.718 113.51 165.858 112.258L90.8583 3.92502C87.75 -0.566642 80.2667 -0.566642 77.15 3.92502L2.14998 112.258C1.28185 113.508 0.772764 114.971 0.678023 116.49C0.583282 118.009 0.906512 119.524 1.6126 120.872C2.31868 122.219 3.38061 123.348 4.68301 124.135C5.98542 124.921 7.47848 125.336 8.99998 125.333Z" fill="#F2F4F7"/>
</svg>
