<svg width="96" height="97" viewBox="0 0 96 97" fill="none" xmlns="http://www.w3.org/2000/svg">
<path d="M48 8.5C25.92 8.5 8 26.42 8 48.5C8 70.58 25.92 88.5 48 88.5C70.08 88.5 88 70.58 88 48.5C88 26.42 70.08 8.5 48 8.5ZM48 24.5C55.72 24.5 62 30.78 62 38.5C62 46.22 55.72 52.5 48 52.5C40.28 52.5 34 46.22 34 38.5C34 30.78 40.28 24.5 48 24.5ZM48 80.5C39.88 80.5 30.28 77.22 23.44 68.98C30.4464 63.4829 39.0945 60.4952 48 60.4952C56.9055 60.4952 65.5536 63.4829 72.56 68.98C65.72 77.22 56.12 80.5 48 80.5Z" fill="#397B7E"/>
</svg>
