<svg width="41" height="40" viewBox="0 0 41 40" fill="none" xmlns="http://www.w3.org/2000/svg">
<path d="M20.2 0C9.16 0 0.199997 8.96 0.199997 20C0.199997 31.04 9.16 40 20.2 40C31.24 40 40.2 31.04 40.2 20C40.2 8.96 31.24 0 20.2 0ZM20.2 8C24.06 8 27.2 11.14 27.2 15C27.2 18.86 24.06 22 20.2 22C16.34 22 13.2 18.86 13.2 15C13.2 11.14 16.34 8 20.2 8ZM20.2 36C16.14 36 11.34 34.36 7.92 30.24C11.4232 27.4914 15.7472 25.9976 20.2 25.9976C24.6528 25.9976 28.9768 27.4914 32.48 30.24C29.06 34.36 24.26 36 20.2 36Z" fill="#F2F4F7"/>
</svg>
