<svg width="200" height="200" viewBox="0 0 200 200" fill="none" xmlns="http://www.w3.org/2000/svg">
<path d="M69.6719 6.57813C49.6888 13.5104 32.4554 26.6682 20.503 44.1188C8.55061 61.5693 2.50925 82.3929 3.26629 103.531C4.02334 124.669 11.5389 145.007 24.709 161.557C37.8792 178.108 56.0097 189.999 76.4375 195.484C92.9988 199.758 110.35 199.945 127 196.031C142.083 192.643 156.028 185.396 167.469 175C179.376 163.849 188.019 149.664 192.469 133.969C197.305 116.901 198.166 98.9521 194.984 81.5H101.984V120.078H155.844C154.767 126.231 152.461 132.104 149.062 137.344C145.663 142.585 141.242 147.086 136.063 150.578C129.486 154.929 122.072 157.856 114.297 159.172C106.499 160.622 98.5009 160.622 90.7031 159.172C82.7998 157.538 75.3234 154.276 68.75 149.594C58.1898 142.119 50.2606 131.499 46.0938 119.25C41.8565 106.772 41.8565 93.2438 46.0938 80.7656C49.0598 72.019 53.963 64.0552 60.4375 57.4687C67.8467 49.7929 77.2271 44.3062 87.5493 41.6106C97.8716 38.9149 108.737 39.1145 118.953 42.1875C126.934 44.6374 134.232 48.9178 140.266 54.6875C146.339 48.6458 152.401 42.5885 158.453 36.5156C161.578 33.25 164.984 30.1406 168.063 26.7969C158.853 18.2262 148.042 11.5571 136.25 7.17188C114.777 -0.625158 91.2809 -0.834696 69.6719 6.57813Z" fill="white"/>
<path d="M69.6719 6.57812C91.2791 -0.839739 114.775 -0.635717 136.25 7.15625C148.044 11.5713 158.85 18.2725 168.047 26.875C164.922 30.2187 161.625 33.3437 158.437 36.5937C152.375 42.6458 146.318 48.6771 140.266 54.6875C134.232 48.9178 126.934 44.6374 118.953 42.1875C108.74 39.1038 97.8753 38.8926 87.5503 41.5772C77.2253 44.2618 67.8392 49.7385 60.4219 57.4062C53.9474 63.9927 49.0442 71.9565 46.0781 80.7031L13.6875 55.625C25.2814 32.6338 45.3555 15.0472 69.6719 6.57812Z" fill="#E33629"/>
<path d="M5.09374 80.4688C6.83469 71.8405 9.72504 63.4848 13.6875 55.625L46.0781 80.7656C41.8408 93.2438 41.8408 106.772 46.0781 119.25C35.2864 127.583 24.4896 135.958 13.6875 144.375C3.76796 124.63 0.742684 102.133 5.09374 80.4688Z" fill="#F8BD00"/>
<path d="M101.984 81.4844H194.984C198.166 98.9365 197.305 116.885 192.469 133.953C188.019 149.648 179.376 163.834 167.469 174.984C157.016 166.828 146.516 158.734 136.062 150.578C141.245 147.082 145.668 142.576 149.067 137.33C152.466 132.084 154.771 126.205 155.844 120.047H101.984C101.969 107.203 101.984 94.3437 101.984 81.4844Z" fill="#587DBD"/>
<path d="M13.6719 144.375C24.474 136.042 35.2708 127.667 46.0625 119.25C50.2376 131.503 58.1782 142.123 68.75 149.594C75.3439 154.254 82.8364 157.49 90.75 159.094C98.5478 160.544 106.546 160.544 114.344 159.094C122.119 157.778 129.533 154.85 136.109 150.5C146.563 158.656 157.062 166.75 167.516 174.906C156.076 185.308 142.132 192.561 127.047 195.953C110.397 199.867 93.0457 199.68 76.4844 195.406C63.386 191.909 51.1512 185.744 40.5469 177.297C29.3228 168.386 20.1556 157.156 13.6719 144.375Z" fill="#319F43"/>
</svg>
