<svg width="144" height="144" viewBox="0 0 144 144" fill="none" xmlns="http://www.w3.org/2000/svg">
<path d="M72.06 8.90997C59.568 8.90997 49.536 9.02997 49.602 9.19197C49.662 9.31197 59.85 27.198 72.246 48.912L94.806 88.356H117.366C129.852 88.356 139.884 88.236 139.818 88.074C139.788 87.954 129.57 70.068 117.168 48.354L94.608 8.90997H72.06ZM43.5 19.29C36.1817 31.8944 28.9217 44.5326 21.72 57.204L0 95.208L11.34 114.996L22.65 134.778L44.37 96.768L66.078 58.788L54.798 39.066C48.6 28.224 43.53 19.326 43.5 19.29ZM57.054 95.208L55.836 97.296C55.152 98.484 50.076 107.328 44.556 117.018C41.184 122.972 37.788 128.912 34.368 134.838C34.308 134.994 53.808 135.09 77.7 135.09H121.164L131.94 116.148C137.892 105.744 143.04 96.768 143.376 96.21L144 95.208H100.506H57.054Z" fill="#397B7E"/>
</svg>
