<svg width="128" height="128" viewBox="0 0 128 128" fill="none" xmlns="http://www.w3.org/2000/svg">
<g clip-path="url(#clip0_491_1607)">
<path d="M124.36 52.464C125.107 56.7595 125.479 61.1119 125.472 65.472C125.472 84.944 118.512 101.408 106.4 112.552H106.416C95.824 122.336 81.264 128 64 128C47.0261 128 30.7475 121.257 18.7452 109.255C6.74284 97.2525 0 80.9738 0 64C0 47.0261 6.74284 30.7475 18.7452 18.7451C30.7475 6.74282 47.0261 -2.11943e-05 64 -2.11943e-05C79.8858 -0.176933 95.2258 5.79051 106.816 16.656L88.544 34.928C81.9376 28.634 73.1235 25.1865 64 25.328C47.304 25.328 33.12 36.592 28.064 51.76C25.388 59.7088 25.388 68.3152 28.064 76.264H28.088C33.168 91.408 47.328 102.672 64.024 102.672C72.648 102.672 80.056 100.464 85.8 96.56H85.776C89.1119 94.3511 91.9654 91.4889 94.164 88.1462C96.3626 84.8036 97.8608 81.0499 98.568 77.112H64V52.472L124.36 52.464Z" fill="#397B7E"/>
</g>
<defs>
<clipPath id="clip0_491_1607">
<rect width="128" height="128" fill="white"/>
</clipPath>
</defs>
</svg>
