<svg width="19" height="20" viewBox="0 0 19 20" fill="none" xmlns="http://www.w3.org/2000/svg">
<path fill-rule="evenodd" clip-rule="evenodd" d="M1.97205 1.172C0.800049 2.343 0.800049 4.229 0.800049 8V12C0.800049 15.771 0.800049 17.657 1.97205 18.828C3.14305 20 5.02905 20 8.80005 20H10.8C14.571 20 16.457 20 17.628 18.828C18.8 17.657 18.8 15.771 18.8 12V8C18.8 4.229 18.8 2.343 17.628 1.172C16.457 -1.19209e-07 14.571 0 10.8 0H8.80005C5.02905 0 3.14305 -1.19209e-07 1.97205 1.172ZM5.80005 7.25C5.60114 7.25 5.41037 7.32902 5.26972 7.46967C5.12907 7.61032 5.05005 7.80109 5.05005 8C5.05005 8.19891 5.12907 8.38968 5.26972 8.53033C5.41037 8.67098 5.60114 8.75 5.80005 8.75H13.8C13.999 8.75 14.1897 8.67098 14.3304 8.53033C14.471 8.38968 14.55 8.19891 14.55 8C14.55 7.80109 14.471 7.61032 14.3304 7.46967C14.1897 7.32902 13.999 7.25 13.8 7.25H5.80005ZM5.80005 11.25C5.60114 11.25 5.41037 11.329 5.26972 11.4697C5.12907 11.6103 5.05005 11.8011 5.05005 12C5.05005 12.1989 5.12907 12.3897 5.26972 12.5303C5.41037 12.671 5.60114 12.75 5.80005 12.75H10.8C10.999 12.75 11.1897 12.671 11.3304 12.5303C11.471 12.3897 11.55 12.1989 11.55 12C11.55 11.8011 11.471 11.6103 11.3304 11.4697C11.1897 11.329 10.999 11.25 10.8 11.25H5.80005Z" fill="#F2F4F7"/>
</svg>
