<svg width="25" height="24" viewBox="0 0 25 24" fill="none" xmlns="http://www.w3.org/2000/svg">
<path d="M22.8999 12L17.8999 8V11L8.8999 11V13L17.8999 13V16L22.8999 12Z" fill="#30696B"/>
<path d="M11.8989 21.001C13.0814 21.0043 14.2528 20.7729 15.3452 20.3202C16.4376 19.8676 17.4293 19.2027 18.2629 18.364L16.8489 16.95C15.5269 18.272 13.7689 19.001 11.8989 19.001C10.0289 19.001 8.27094 18.272 6.94894 16.95C5.62694 15.628 4.89794 13.87 4.89794 12C4.89794 10.13 5.62694 8.372 6.94894 7.05C8.27094 5.728 10.0289 4.999 11.8989 4.999C13.7689 4.999 15.5269 5.728 16.8489 7.05L18.2629 5.636C16.5639 3.936 14.3039 2.999 11.8989 2.999C9.49394 2.999 7.23394 3.936 5.53494 5.636C3.83494 7.335 2.89794 9.595 2.89794 12C2.89794 14.405 3.83494 16.665 5.53494 18.364C6.36854 19.2027 7.36028 19.8676 8.45269 20.3202C9.54509 20.7729 10.7165 21.0043 11.8989 21.001Z" fill="#30696B"/>
</svg>
