<svg width="25" height="24" viewBox="0 0 25 24" fill="none" xmlns="http://www.w3.org/2000/svg">
<path d="M11.798 16L16.798 12L11.798 8V11H2.798V13H11.798V16Z" fill="#F2F4F7"/>
<path d="M13.799 2.999C12.6165 2.99572 11.4452 3.22711 10.3528 3.67976C9.26034 4.13241 8.26861 4.79733 7.43501 5.636L8.849 7.05C10.171 5.728 11.929 4.999 13.799 4.999C15.669 4.999 17.427 5.728 18.749 7.05C20.071 8.372 20.8 10.13 20.8 12C20.8 13.87 20.071 15.628 18.749 16.95C17.427 18.272 15.669 19.001 13.799 19.001C11.929 19.001 10.171 18.272 8.849 16.95L7.43501 18.364C9.13401 20.064 11.394 21.001 13.799 21.001C16.204 21.001 18.464 20.064 20.163 18.364C21.863 16.665 22.8 14.405 22.8 12C22.8 9.595 21.863 7.335 20.163 5.636C19.3294 4.79733 18.3377 4.13241 17.2453 3.67976C16.1528 3.22711 14.9815 2.99572 13.799 2.999Z" fill="#F2F4F7"/>
</svg>
